<svg width="48" height="48" viewBox="0 0 48 48" fill="none" xmlns="http://www.w3.org/2000/svg">
<circle cx="24" cy="24" r="24" fill="url(#paint0_linear_12_57)"/>
<path d="M34.0363 28.1635C34.0363 29.3161 34.1575 30.1199 34.3999 30.5749C34.6423 30.9995 35.1098 31.2119 35.8025 31.2119C36.599 31.2119 37.4648 30.8933 38.3999 30.2564V31.5758C37.3956 32.5465 36.5124 33.2138 35.7505 33.5778C34.9886 33.9418 34.1055 34.1238 33.1012 34.1238C31.8891 34.1238 30.9886 33.8356 30.3999 33.2593C29.8458 32.6526 29.4995 31.6517 29.3609 30.2564C27.56 31.6213 25.9843 32.6071 24.6337 33.2138C23.283 33.8204 21.967 34.1238 20.6856 34.1238C18.8155 34.1238 17.2917 33.6081 16.1142 32.5768C14.9713 31.5455 14.3999 30.2109 14.3999 28.5729C14.3999 27.754 14.5731 26.935 14.9194 26.116C15.3003 25.2667 15.8371 24.5842 16.5298 24.0685C17.1531 23.5833 17.7246 23.1737 18.2441 22.8401C18.7982 22.4761 19.5081 22.1121 20.3739 21.7481C21.2397 21.3538 22.3653 20.914 23.7506 20.4286C25.1358 19.9434 26.9713 19.2912 29.257 18.4722V15.1508C29.257 13.7252 28.8588 12.6484 28.0622 11.9204C27.3003 11.1924 26.1921 10.8284 24.7375 10.8284C23.5255 10.8284 22.5038 11.0863 21.6726 11.6019C20.8761 12.0873 20.4778 12.6787 20.4778 13.3764C20.4778 13.6493 20.5124 13.9982 20.5817 14.4228C20.6856 14.8475 20.7376 15.1963 20.7376 15.4693C20.7376 16.076 20.4605 16.5916 19.9064 17.0163C19.3869 17.4409 18.7808 17.6533 18.0882 17.6533C17.3956 17.6533 16.7895 17.4409 16.27 17.0163C15.7852 16.5613 15.5428 16.0305 15.5428 15.4238C15.5428 14.7565 15.7506 14.074 16.1661 13.3764C16.6163 12.6787 17.2224 12.0569 17.9843 11.5109C18.7808 10.9042 19.8371 10.4341 21.1532 10.1005C22.5038 9.76679 23.9584 9.6 25.5168 9.6C27.3176 9.6 28.8241 9.87295 30.0363 10.419C31.283 10.9346 32.2354 11.6626 32.8934 12.6029C33.309 13.2096 33.6033 13.9224 33.7765 14.7413C33.9496 15.53 34.0363 16.6068 34.0363 17.9717V28.1635ZM29.257 19.7462C27.4562 20.3225 25.915 20.8837 24.6337 21.4296C23.3869 21.9453 22.3653 22.4913 21.5687 23.0676C20.8068 23.6136 20.2527 24.205 19.9064 24.842C19.5601 25.479 19.3869 26.1766 19.3869 26.935V27.1624C19.3869 27.7085 19.4908 28.2393 19.6986 28.7549C19.9064 29.2403 20.1834 29.6649 20.5298 30.0289C20.9108 30.3929 21.3436 30.681 21.8285 30.8933C22.3134 31.1057 22.8155 31.2119 23.335 31.2119C23.9584 31.2119 24.6509 31.1057 25.4129 30.8933C26.2094 30.6507 26.954 30.3626 27.6466 30.0289C28.3393 29.6952 28.7722 29.3464 28.9453 28.9824C29.1531 28.6184 29.257 28.0421 29.257 27.2535V19.7462Z" fill="white"/>
<defs>
<linearGradient id="paint0_linear_12_57" x1="24" y1="0" x2="24" y2="48" gradientUnits="userSpaceOnUse">
<stop stop-color="#8F3DF2"/>
<stop offset="1" stop-color="#460E8A" stop-opacity="0.96"/>
</linearGradient>
</defs>
</svg>
