<svg width="20" height="10" viewBox="0 0 20 10" fill="none" xmlns="http://www.w3.org/2000/svg">
<rect width="20" height="10" fill="#F5F5F5"/>
<g id="marca">
<path d="M4.58738 8.0506C4.58738 8.42758 4.6157 8.69048 4.67233 8.83929C4.72896 8.97817 4.83819 9.04762 5 9.04762C5.18608 9.04762 5.38835 8.94345 5.6068 8.73512V9.16667C5.37217 9.48413 5.16586 9.70238 4.98786 9.82143C4.80987 9.94048 4.60356 10 4.36893 10C4.08576 10 3.8754 9.90575 3.73786 9.71726C3.60841 9.51885 3.52751 9.19147 3.49515 8.73512C3.07443 9.18155 2.70631 9.50397 2.39078 9.70238C2.07524 9.90079 1.7678 10 1.46845 10C1.03155 10 0.675566 9.83135 0.400485 9.49405C0.133495 9.15675 0 8.72024 0 8.18452C0 7.91667 0.0404531 7.64881 0.121359 7.38095C0.210356 7.10317 0.335761 6.87996 0.497573 6.71131C0.643204 6.55258 0.776699 6.41865 0.898058 6.30952C1.02751 6.19048 1.19337 6.07143 1.39563 5.95238C1.5979 5.82341 1.86084 5.67956 2.18447 5.52083C2.50809 5.3621 2.93689 5.14881 3.47087 4.88095V3.79464C3.47087 3.32837 3.37783 2.97619 3.19175 2.7381C3.01375 2.5 2.75485 2.38095 2.41505 2.38095C2.13188 2.38095 1.8932 2.46528 1.69903 2.63393C1.51295 2.79266 1.4199 2.98611 1.4199 3.21429C1.4199 3.30357 1.42799 3.41766 1.44417 3.55655C1.46845 3.69544 1.48058 3.80952 1.48058 3.89881C1.48058 4.09722 1.41586 4.26587 1.28641 4.40476C1.16505 4.54365 1.02346 4.6131 0.861651 4.6131C0.699838 4.6131 0.558252 4.54365 0.436893 4.40476C0.323625 4.25595 0.26699 4.08234 0.26699 3.88393C0.26699 3.66567 0.315534 3.44246 0.412621 3.21429C0.517799 2.98611 0.659385 2.78274 0.837379 2.60417C1.02346 2.40575 1.27023 2.25198 1.57767 2.14286C1.8932 2.03373 2.23301 1.97917 2.59709 1.97917C3.0178 1.97917 3.36974 2.06845 3.65291 2.24702C3.94417 2.41567 4.16667 2.65377 4.32039 2.96131C4.41748 3.15972 4.48625 3.39286 4.5267 3.66071C4.56715 3.91865 4.58738 4.27083 4.58738 4.71726V8.0506ZM3.47087 5.29762C3.05016 5.48611 2.69013 5.66964 2.39078 5.84821C2.09951 6.01687 1.86084 6.19544 1.67476 6.38393C1.49676 6.5625 1.36731 6.75595 1.28641 6.96429C1.2055 7.17262 1.16505 7.40079 1.16505 7.64881V7.72321C1.16505 7.90179 1.18932 8.0754 1.23786 8.24405C1.28641 8.40278 1.35113 8.54167 1.43204 8.66071C1.52104 8.77976 1.62217 8.87401 1.73544 8.94345C1.84871 9.0129 1.96602 9.04762 2.08738 9.04762C2.23301 9.04762 2.39482 9.0129 2.57282 8.94345C2.7589 8.86409 2.93285 8.76984 3.09466 8.66071C3.25647 8.55159 3.35761 8.4375 3.39806 8.31845C3.4466 8.19941 3.47087 8.01091 3.47087 7.75298V5.29762Z" fill="black"/>
<path d="M5.74029 2.96131C5.94256 2.87202 6.12864 2.79266 6.29854 2.72321C6.46845 2.64385 6.63026 2.56944 6.78398 2.5C6.94579 2.42064 7.10356 2.34623 7.25728 2.27679C7.41909 2.19742 7.59304 2.1131 7.77913 2.02381L7.86408 2.05357V3.61607C8.03398 3.30853 8.1877 3.05556 8.32524 2.85714C8.46278 2.64881 8.59628 2.48512 8.72573 2.36607C8.85518 2.2371 8.98058 2.14782 9.10194 2.09821C9.23139 2.04861 9.36893 2.02381 9.51456 2.02381C9.74919 2.02381 9.93528 2.10813 10.0728 2.27679C10.2104 2.43552 10.2791 2.64881 10.2791 2.91667C10.2791 3.16468 10.2306 3.35814 10.1335 3.49702C10.0364 3.62599 9.90696 3.69048 9.74515 3.69048C9.65615 3.69048 9.56715 3.67064 9.47816 3.63095C9.39725 3.58135 9.30016 3.4871 9.18689 3.34821C9.11408 3.26885 9.04531 3.20933 8.98058 3.16964C8.91586 3.12996 8.86327 3.11012 8.82282 3.11012C8.72573 3.11012 8.62055 3.15972 8.50728 3.25893C8.4021 3.34821 8.30097 3.4623 8.20388 3.60119C8.1068 3.74008 8.02589 3.88889 7.96117 4.04762C7.89644 4.20635 7.86408 4.35516 7.86408 4.49405V8.31845C7.86408 8.55655 7.88026 8.75496 7.91262 8.91369C7.94498 9.07242 8.00566 9.20139 8.09466 9.3006C8.18366 9.38988 8.30502 9.45933 8.45874 9.50893C8.61246 9.55853 8.80663 9.58829 9.04126 9.59821V9.83631H5.70388V9.59821C5.92233 9.54861 6.09628 9.49901 6.22573 9.44941C6.36327 9.38988 6.4644 9.32044 6.52913 9.24107C6.60194 9.16171 6.64644 9.05754 6.66262 8.92857C6.68689 8.78968 6.69903 8.61607 6.69903 8.40774V4.16667C6.69903 3.78968 6.66262 3.52679 6.58981 3.37798C6.51699 3.21925 6.39563 3.13988 6.22573 3.13988C6.13673 3.13988 6.05583 3.14484 5.98301 3.15476C5.91829 3.16468 5.83738 3.18452 5.74029 3.21429V2.96131Z" fill="black"/>
<path d="M13.7985 2.72321H12.3908V7.60417C12.3908 8.1498 12.4474 8.54167 12.5607 8.77976C12.6739 9.00794 12.856 9.12202 13.1068 9.12202C13.2686 9.12202 13.4102 9.08234 13.5316 9.00298C13.6529 8.91369 13.7945 8.75496 13.9563 8.52679L14.1262 8.73512C13.6893 9.57837 13.1311 10 12.4515 10C11.6343 10 11.2257 9.28075 11.2257 7.84226V2.72321H10.4976C10.4652 2.71329 10.449 2.67857 10.449 2.61905C10.449 2.51984 10.5259 2.41071 10.6796 2.29167C11.0437 2.03373 11.4927 1.42857 12.0267 0.47619C12.0672 0.396825 12.1117 0.322421 12.1602 0.252976C12.2168 0.173611 12.2654 0.0892857 12.3058 0C12.3382 0 12.3584 0.014881 12.3665 0.0446429C12.3827 0.0744048 12.3908 0.133929 12.3908 0.223214V2.1875H13.7985V2.72321Z" fill="black"/>
<path d="M20 7.17262C19.7087 8.10516 19.3123 8.80952 18.8107 9.28571C18.3172 9.76191 17.7346 10 17.0631 10C16.6667 10 16.3066 9.91071 15.983 9.73214C15.6675 9.55357 15.3964 9.3006 15.1699 8.97321C14.9434 8.64583 14.7694 8.24901 14.6481 7.78274C14.5267 7.31647 14.466 6.79067 14.466 6.20536C14.466 5.58036 14.5348 5.00992 14.6723 4.49405C14.818 3.97817 15.0162 3.53671 15.267 3.16964C15.5259 2.79266 15.8333 2.5 16.1893 2.29167C16.5453 2.08333 16.9377 1.97917 17.3665 1.97917C17.7306 1.97917 18.0623 2.06349 18.3617 2.23214C18.6691 2.40079 18.928 2.63889 19.1384 2.94643C19.2273 3.08532 19.3002 3.22421 19.3568 3.3631C19.4215 3.50198 19.4741 3.65575 19.5146 3.8244C19.5631 3.99306 19.6036 4.18155 19.6359 4.38988C19.6683 4.59821 19.7006 4.83631 19.733 5.10417H15.4733C15.4895 5.6498 15.5259 6.10119 15.5825 6.45833C15.6472 6.80556 15.7484 7.14286 15.8859 7.47024C16.2824 8.38294 16.8649 8.83929 17.6335 8.83929C18.0785 8.83929 18.4628 8.70536 18.7864 8.4375C19.1181 8.16964 19.4498 7.71329 19.7816 7.06845L20 7.17262ZM18.3252 4.53869C18.2362 3.80456 18.0906 3.29861 17.8884 3.02083C17.6942 2.73314 17.3867 2.58929 16.966 2.58929C16.5372 2.58929 16.2015 2.74306 15.9587 3.0506C15.7241 3.35814 15.5704 3.85417 15.4976 4.53869H18.3252Z" fill="black"/>
</g>
</svg>
