<svg width="140" height="50" viewBox="0 0 140 50" fill="none" xmlns="http://www.w3.org/2000/svg">
<path d="M32.1117 40.253C32.1117 42.1379 32.3099 43.4524 32.7063 44.1964C33.1027 44.8908 33.8673 45.2381 35 45.2381C36.3026 45.2381 37.7184 44.7172 39.2476 43.6756V45.8333C37.6052 47.4206 36.161 48.5119 34.915 49.1071C33.6691 49.7024 32.2249 50 30.5825 50C28.6003 50 27.1278 49.5287 26.165 48.5863C25.2589 47.5942 24.6926 45.9573 24.466 43.6756C21.521 45.9077 18.9442 47.5198 16.7355 48.5119C14.5267 49.5039 12.3746 50 10.2791 50C7.22085 50 4.72896 49.1567 2.80339 47.4702C0.934465 45.7837 0 43.6012 0 40.9226C0 39.5833 0.283172 38.244 0.849513 36.9047C1.47249 35.5158 2.35033 34.3998 3.48301 33.5565C4.50243 32.7629 5.43689 32.0932 6.28641 31.5476C7.19257 30.9524 8.35359 30.3571 9.76941 29.7619C11.1853 29.117 13.0259 28.3978 15.2913 27.6041C17.5566 26.8105 20.5582 25.744 24.2961 24.4047V18.9732C24.2961 16.6418 23.6448 14.8809 22.3422 13.6905C21.0962 12.5 19.2839 11.9047 16.9053 11.9047C14.9232 11.9047 13.2524 12.3264 11.8932 13.1696C10.5906 13.9633 9.9393 14.9305 9.9393 16.0714C9.9393 16.5178 9.99593 17.0883 10.1092 17.7827C10.2791 18.4772 10.3641 19.0476 10.3641 19.494C10.3641 20.4861 9.91102 21.3293 9.00487 22.0238C8.15535 22.7182 7.16422 23.0655 6.03156 23.0655C4.89887 23.0655 3.90776 22.7182 3.05825 22.0238C2.26537 21.2797 1.86893 20.4117 1.86893 19.4196C1.86893 18.3283 2.20874 17.2123 2.88835 16.0714C3.62459 14.9305 4.61569 13.9137 5.86165 13.0208C7.16422 12.0287 8.89161 11.2599 11.0437 10.7143C13.2524 10.1686 15.6311 9.89584 18.1796 9.89584C21.1246 9.89584 23.5882 10.3422 25.5704 11.2351C27.6092 12.0783 29.1667 13.2688 30.2427 14.8065C30.9224 15.7986 31.4037 16.9643 31.6869 18.3035C31.97 19.5932 32.1117 21.3541 32.1117 23.5863V40.253ZM24.2961 26.4881C21.3511 27.4305 18.8309 28.3482 16.7355 29.241C14.6966 30.0843 13.0259 30.9772 11.7233 31.9196C10.4773 32.8125 9.57117 33.7797 9.00487 34.8214C8.4385 35.8631 8.15535 37.0039 8.15535 38.244V38.616C8.15535 39.5089 8.32524 40.377 8.66502 41.2202C9.00487 42.0139 9.45791 42.7083 10.0243 43.3035C10.6473 43.8988 11.3552 44.37 12.1481 44.7172C12.941 45.0645 13.7621 45.2381 14.6117 45.2381C15.6311 45.2381 16.7637 45.0645 18.0097 44.7172C19.3123 44.3204 20.5299 43.8492 21.6626 43.3035C22.7953 42.7579 23.5033 42.1875 23.7864 41.5922C24.1262 40.997 24.2961 40.0545 24.2961 38.7649V26.4881Z" fill="black"/>
<path d="M40.182 14.8065C41.5979 14.3601 42.9005 13.9633 44.0898 13.6161C45.2791 13.2193 46.4118 12.8472 47.4879 12.5C48.6205 12.1032 49.7249 11.7311 50.801 11.3839C51.9336 10.9871 53.1513 10.5655 54.4539 10.119L55.0486 10.2678V18.0803C56.2379 16.5426 57.3139 15.2778 58.2767 14.2857C59.2395 13.244 60.174 12.4256 61.0801 11.8303C61.9863 11.1855 62.8641 10.7391 63.7136 10.4911C64.6197 10.243 65.5825 10.119 66.6019 10.119C68.2443 10.119 69.547 10.5406 70.5096 11.3839C71.4728 12.1776 71.9537 13.244 71.9537 14.5833C71.9537 15.8234 71.6142 16.7907 70.9345 17.4851C70.2548 18.1299 69.3487 18.4524 68.216 18.4524C67.593 18.4524 66.97 18.3532 66.3471 18.1547C65.7807 17.9067 65.1011 17.4355 64.3082 16.7411C63.7986 16.3443 63.3172 16.0466 62.8641 15.8482C62.411 15.6498 62.0429 15.5506 61.7597 15.5506C61.0801 15.5506 60.3438 15.7986 59.551 16.2946C58.8147 16.741 58.1068 17.3115 57.4272 18.0059C56.7476 18.7004 56.1812 19.4444 55.7282 20.2381C55.2751 21.0317 55.0486 21.7758 55.0486 22.4702V41.5922C55.0486 42.7827 55.1618 43.7748 55.3883 44.5684C55.6149 45.3621 56.0396 46.0069 56.6626 46.503C57.2856 46.9494 58.1351 47.2967 59.2112 47.5447C60.2872 47.7927 61.6464 47.9415 63.2888 47.9911V49.1816H39.9272V47.9911C41.4563 47.7431 42.674 47.4951 43.5801 47.2471C44.5429 46.9494 45.2508 46.6022 45.7039 46.2053C46.2136 45.8085 46.5251 45.2877 46.6383 44.6428C46.8082 43.9484 46.8932 43.0803 46.8932 42.0387V20.8333C46.8932 18.9484 46.6383 17.6339 46.1287 16.8899C45.6189 16.0962 44.7694 15.6994 43.5801 15.6994C42.9571 15.6994 42.3908 15.7242 41.8811 15.7738C41.428 15.8234 40.8617 15.9226 40.182 16.0714V14.8065Z" fill="black"/>
<path d="M96.5895 13.6161H86.7356V38.0208C86.7356 40.749 87.1318 42.7084 87.9249 43.8988C88.7173 45.0397 89.992 45.6101 91.7476 45.6101C92.8802 45.6101 93.8714 45.4117 94.7212 45.0149C95.5703 44.5685 96.5615 43.7748 97.6941 42.6339L98.8834 43.6756C95.8251 47.8918 91.9177 50 87.1605 50C81.4401 50 78.5799 46.4037 78.5799 39.2113V13.6161H73.4832C73.2564 13.5665 73.143 13.3929 73.143 13.0953C73.143 12.5992 73.6813 12.0536 74.7572 11.4584C77.3059 10.1687 80.4489 7.14285 84.1869 2.38095C84.4704 1.98413 84.7819 1.6121 85.1214 1.26488C85.5176 0.868055 85.8578 0.446429 86.1406 0C86.3674 0 86.5088 0.074405 86.5655 0.223214C86.6789 0.372024 86.7356 0.669645 86.7356 1.11607V10.9375H96.5895V13.6161Z" fill="black"/>
<path d="M140 35.8631C137.961 40.5258 135.186 44.0476 131.675 46.4285C128.22 48.8095 124.142 50 119.442 50C116.667 50 114.146 49.5535 111.881 48.6607C109.672 47.7678 107.775 46.503 106.189 44.866C104.604 43.2291 103.386 41.245 102.537 38.9137C101.687 36.5823 101.262 33.9533 101.262 31.0268C101.262 27.9018 101.744 25.0496 102.706 22.4702C103.726 19.8908 105.113 17.6835 106.869 15.8482C108.681 13.9633 110.833 12.5 113.325 11.4583C115.817 10.4166 118.564 9.89584 121.566 9.89584C124.114 9.89584 126.436 10.3174 128.532 11.1607C130.684 12.0039 132.496 13.1944 133.969 14.7321C134.591 15.4266 135.101 16.121 135.498 16.8155C135.95 17.5099 136.319 18.2787 136.602 19.122C136.942 19.9653 137.225 20.9077 137.451 21.9494C137.678 22.991 137.904 24.1815 138.131 25.5208H108.313C108.426 28.249 108.681 30.5059 109.077 32.2916C109.53 34.0278 110.239 35.7143 111.201 37.3512C113.977 41.9147 118.054 44.1964 123.434 44.1964C126.549 44.1964 129.24 43.5268 131.505 42.1875C133.827 40.8482 136.149 38.5664 138.471 35.3422L140 35.8631ZM128.276 22.6934C127.653 19.0228 126.634 16.493 125.219 15.1041C123.859 13.6657 121.707 12.9464 118.762 12.9464C115.76 12.9464 113.41 13.7153 111.711 15.253C110.069 16.7907 108.993 19.2708 108.483 22.6934H128.276Z" fill="black"/>
</svg>
