<svg width="20" height="22" viewBox="0 0 20 22" fill="none" xmlns="http://www.w3.org/2000/svg">
<path d="M3.29999 21.85C2.41666 21.85 1.67066 21.546 1.06199 20.938C0.453994 20.3293 0.149994 19.5833 0.149994 18.7V5.29999C0.149994 4.41666 0.453994 3.67066 1.06199 3.06199C1.67066 2.45399 2.41666 2.14999 3.29999 2.14999H3.99999V0.149994H6.57499V2.14999H13.425V0.149994H16V2.14999H16.7C17.5833 2.14999 18.3293 2.45399 18.938 3.06199C19.546 3.67066 19.85 4.41666 19.85 5.29999V18.7C19.85 19.5833 19.546 20.3293 18.938 20.938C18.3293 21.546 17.5833 21.85 16.7 21.85H3.29999ZM3.29999 18.7H16.7V8.99999H3.29999V18.7ZM3.29999 6.99999H16.7V5.29999H3.29999V6.99999ZM9.99999 13.2C9.66666 13.2 9.38333 13.0833 9.14999 12.85C8.91666 12.6167 8.79999 12.3333 8.79999 12C8.79999 11.6667 8.91666 11.3833 9.14999 11.15C9.38333 10.9167 9.66666 10.8 9.99999 10.8C10.3333 10.8 10.6167 10.9167 10.85 11.15C11.0833 11.3833 11.2 11.6667 11.2 12C11.2 12.3333 11.0833 12.6167 10.85 12.85C10.6167 13.0833 10.3333 13.2 9.99999 13.2ZM5.99999 13.2C5.66666 13.2 5.38333 13.0833 5.14999 12.85C4.91666 12.6167 4.79999 12.3333 4.79999 12C4.79999 11.6667 4.91666 11.3833 5.14999 11.15C5.38333 10.9167 5.66666 10.8 5.99999 10.8C6.33333 10.8 6.61666 10.9167 6.84999 11.15C7.08333 11.3833 7.19999 11.6667 7.19999 12C7.19999 12.3333 7.08333 12.6167 6.84999 12.85C6.61666 13.0833 6.33333 13.2 5.99999 13.2ZM14 13.2C13.6833 13.2 13.4043 13.0833 13.163 12.85C12.921 12.6167 12.8 12.3333 12.8 12C12.8 11.6667 12.921 11.3833 13.163 11.15C13.4043 10.9167 13.6917 10.8 14.025 10.8C14.3417 10.8 14.6167 10.9167 14.85 11.15C15.0833 11.3833 15.2 11.6667 15.2 12C15.2 12.3333 15.0833 12.6167 14.85 12.85C14.6167 13.0833 14.3333 13.2 14 13.2ZM9.99999 17.2C9.66666 17.2 9.38333 17.079 9.14999 16.837C8.91666 16.5957 8.79999 16.3083 8.79999 15.975C8.79999 15.6583 8.91666 15.3833 9.14999 15.15C9.38333 14.9167 9.66666 14.8 9.99999 14.8C10.3333 14.8 10.6167 14.9167 10.85 15.15C11.0833 15.3833 11.2 15.6667 11.2 16C11.2 16.3167 11.0833 16.5957 10.85 16.837C10.6167 17.079 10.3333 17.2 9.99999 17.2ZM5.99999 17.2C5.66666 17.2 5.38333 17.079 5.14999 16.837C4.91666 16.5957 4.79999 16.3083 4.79999 15.975C4.79999 15.6583 4.91666 15.3833 5.14999 15.15C5.38333 14.9167 5.66666 14.8 5.99999 14.8C6.33333 14.8 6.61666 14.9167 6.84999 15.15C7.08333 15.3833 7.19999 15.6667 7.19999 16C7.19999 16.3167 7.08333 16.5957 6.84999 16.837C6.61666 17.079 6.33333 17.2 5.99999 17.2ZM14 17.2C13.6833 17.2 13.4043 17.079 13.163 16.837C12.921 16.5957 12.8 16.3083 12.8 15.975C12.8 15.6583 12.921 15.3833 13.163 15.15C13.4043 14.9167 13.6917 14.8 14.025 14.8C14.3417 14.8 14.6167 14.9167 14.85 15.15C15.0833 15.3833 15.2 15.6667 15.2 16C15.2 16.3167 15.0833 16.5957 14.85 16.837C14.6167 17.079 14.3333 17.2 14 17.2Z" fill="url(#paint0_linear_1_76)"/>
<defs>
<linearGradient id="paint0_linear_1_76" x1="9.99999" y1="0.149994" x2="9.99999" y2="21.85" gradientUnits="userSpaceOnUse">
<stop stop-color="#FE4A01"/>
<stop offset="0.0001" stop-color="#8F3DF2"/>
<stop offset="1" stop-color="#460E8A"/>
</linearGradient>
</defs>
</svg>
