<svg width="24" height="24" viewBox="0 0 24 24" fill="none" xmlns="http://www.w3.org/2000/svg">
<mask id="mask0_1_74" style="mask-type:alpha" maskUnits="userSpaceOnUse" x="0" y="0" width="24" height="24">
<rect width="24" height="24" fill="#D9D9D9"/>
</mask>
<g mask="url(#mask0_1_74)">
<path d="M5.29999 22.85C4.41666 22.85 3.67066 22.546 3.06199 21.938C2.45399 21.3293 2.14999 20.5833 2.14999 19.7V6.29999C2.14999 5.41666 2.45399 4.67066 3.06199 4.06199C3.67066 3.45399 4.41666 3.14999 5.29999 3.14999H5.99999V1.14999H8.57499V3.14999H15.425V1.14999H18V3.14999H18.7C19.5833 3.14999 20.3293 3.45399 20.938 4.06199C21.546 4.67066 21.85 5.41666 21.85 6.29999V19.7C21.85 20.5833 21.546 21.3293 20.938 21.938C20.3293 22.546 19.5833 22.85 18.7 22.85H5.29999ZM5.29999 19.7H18.7V9.99999H5.29999V19.7ZM5.29999 7.99999H18.7V6.29999H5.29999V7.99999ZM12 14.2C11.6667 14.2 11.3833 14.0833 11.15 13.85C10.9167 13.6167 10.8 13.3333 10.8 13C10.8 12.6667 10.9167 12.3833 11.15 12.15C11.3833 11.9167 11.6667 11.8 12 11.8C12.3333 11.8 12.6167 11.9167 12.85 12.15C13.0833 12.3833 13.2 12.6667 13.2 13C13.2 13.3333 13.0833 13.6167 12.85 13.85C12.6167 14.0833 12.3333 14.2 12 14.2ZM7.99999 14.2C7.66666 14.2 7.38333 14.0833 7.14999 13.85C6.91666 13.6167 6.79999 13.3333 6.79999 13C6.79999 12.6667 6.91666 12.3833 7.14999 12.15C7.38333 11.9167 7.66666 11.8 7.99999 11.8C8.33333 11.8 8.61666 11.9167 8.84999 12.15C9.08333 12.3833 9.19999 12.6667 9.19999 13C9.19999 13.3333 9.08333 13.6167 8.84999 13.85C8.61666 14.0833 8.33333 14.2 7.99999 14.2ZM16 14.2C15.6833 14.2 15.4043 14.0833 15.163 13.85C14.921 13.6167 14.8 13.3333 14.8 13C14.8 12.6667 14.921 12.3833 15.163 12.15C15.4043 11.9167 15.6917 11.8 16.025 11.8C16.3417 11.8 16.6167 11.9167 16.85 12.15C17.0833 12.3833 17.2 12.6667 17.2 13C17.2 13.3333 17.0833 13.6167 16.85 13.85C16.6167 14.0833 16.3333 14.2 16 14.2ZM12 18.2C11.6667 18.2 11.3833 18.079 11.15 17.837C10.9167 17.5957 10.8 17.3083 10.8 16.975C10.8 16.6583 10.9167 16.3833 11.15 16.15C11.3833 15.9167 11.6667 15.8 12 15.8C12.3333 15.8 12.6167 15.9167 12.85 16.15C13.0833 16.3833 13.2 16.6667 13.2 17C13.2 17.3167 13.0833 17.5957 12.85 17.837C12.6167 18.079 12.3333 18.2 12 18.2ZM7.99999 18.2C7.66666 18.2 7.38333 18.079 7.14999 17.837C6.91666 17.5957 6.79999 17.3083 6.79999 16.975C6.79999 16.6583 6.91666 16.3833 7.14999 16.15C7.38333 15.9167 7.66666 15.8 7.99999 15.8C8.33333 15.8 8.61666 15.9167 8.84999 16.15C9.08333 16.3833 9.19999 16.6667 9.19999 17C9.19999 17.3167 9.08333 17.5957 8.84999 17.837C8.61666 18.079 8.33333 18.2 7.99999 18.2ZM16 18.2C15.6833 18.2 15.4043 18.079 15.163 17.837C14.921 17.5957 14.8 17.3083 14.8 16.975C14.8 16.6583 14.921 16.3833 15.163 16.15C15.4043 15.9167 15.6917 15.8 16.025 15.8C16.3417 15.8 16.6167 15.9167 16.85 16.15C17.0833 16.3833 17.2 16.6667 17.2 17C17.2 17.3167 17.0833 17.5957 16.85 17.837C16.6167 18.079 16.3333 18.2 16 18.2Z" fill="url(#paint0_linear_1_74)"/>
</g>
<defs>
<linearGradient id="paint0_linear_1_74" x1="12" y1="1.14999" x2="12" y2="22.85" gradientUnits="userSpaceOnUse">
<stop stop-color="#FE4A01"/>
<stop offset="1" stop-color="#F3130B"/>
</linearGradient>
</defs>
</svg>
